<svg id="Layer_1" data-name="Layer 1" xmlns="http://www.w3.org/2000/svg" viewBox="0 0 600 600"><defs><style>.cls-1{fill:#0072b1;}.cls-2{fill:#fff;fill-rule:evenodd;}</style></defs><title>favicon</title><rect class="cls-1" width="600" height="600" rx="90.81"/><path class="cls-2" d="M461.4,439.57c-.9-100.71-39.37-77.5-115.32-119.26l-1.21,3.26c0-.21,0-.4,0-.61v-1.42l-7.78,22.91-19.17,51.39-7.65-48.58h1.22c2.65-2.66,6.43-9,6.43-14.09,0-2.63-1.65-3.37-4.05-3.32-3.7-.09-9.27,1.56-13.86,1.85-4.59-.29-10.16-1.94-13.86-1.85-2.4-.05-4.05.69-4.05,3.32,0,5.11,3.78,11.43,6.43,14.09h1.22l-7.65,48.58-19.17-51.39-7.78-22.91V323c0,.21,0,.4,0,.61l-1.21-3.26C178,362.07,139.5,338.86,138.6,439.57c0,1.19,0,2.4,0,3.63H461.42C461.42,442,461.41,440.76,461.4,439.57Z"/><path class="cls-2" d="M230.85,244.78v1.43c0,5.1,2.55,7.56,3.78,7.56H236c9,37.15,38.48,67.77,64,67.77,24.39,0,55.11-30.62,64.1-67.77,1.32,0,3.88-2.46,3.88-7.56a60.27,60.27,0,0,0,3.87-10.41c1.23-5.1,7.66-20.41,2.45-24.29-2.45-1.22-5.1,0-6.32,2.65,0,0,7.65-38.37,2.45-53.68-12.66-42.26-110-53.9-110-26.95-41,11.43-33.38,51.24-28.17,80.63,0,0-2.66-3.87-6.43,0-5.21,5.1,0,16.54,2.55,21.64C228.3,239.68,230.85,243.56,230.85,244.78Z"/></svg>